<?xml version="1.0" standalone="no"?><!DOCTYPE svg PUBLIC "-//W3C//DTD SVG 1.1//EN" "http://www.w3.org/Graphics/SVG/1.1/DTD/svg11.dtd"><svg class="icon" width="200px" height="200.00px" viewBox="0 0 1024 1024" version="1.1" xmlns="http://www.w3.org/2000/svg"><path fill="#333333" d="M739.415268 640.314575c-9.964946 13.136065-7.491216 32.08704 5.526236 42.213471 96.111066 74.816407 151.236237 188.265021 151.236237 311.271294 0 16.663024 13.369004 30.20066 29.803376 30.20066 16.422939 0 29.776224-13.537635 29.776224-30.20066 0-142.014411-63.61674-272.922044-174.52017-359.145335C768.566986 624.729074 749.067246 627.431457 739.415268 640.314575L739.415268 640.314575zM98.044606 1024c16.418652 0 29.776224-13.537635 29.776224-30.20066 0-215.824748 172.349403-391.412438 384.182743-391.412438 163.183311 0 295.935881-135.079106 295.935881-301.120569C807.938025 135.147701 675.185455 0 512.002144 0 348.814545 0 216.061975 135.147701 216.061975 301.266334c0 109.950236 60.27699 211.89479 154.926111 264.357593C191.90059 626.957004 68.241229 800.572568 68.241229 993.79934 68.241229 1010.462365 81.610234 1024 98.044606 1024L98.044606 1024zM512.002144 60.545656c130.330287 0 236.356281 107.983828 236.356281 240.720678 0 132.73685-106.024565 240.726395-236.356281 240.726395-130.241684 0-236.193366-107.989544-236.193366-240.726395C275.808777 168.529484 381.761889 60.545656 512.002144 60.545656L512.002144 60.545656zM512.002144 60.545656" /></svg>