<?xml version="1.0" standalone="no"?><!DOCTYPE svg PUBLIC "-//W3C//DTD SVG 1.1//EN" "http://www.w3.org/Graphics/SVG/1.1/DTD/svg11.dtd"><svg class="icon" width="200px" height="199.80px" viewBox="0 0 1025 1024" version="1.1" xmlns="http://www.w3.org/2000/svg"><path fill="#333333" d="M1021.504825 1007.69117 1008.425724 1020.768828c-7.215658 7.215658-24.172454 1.803914-37.973122-11.905836L705.007306 743.507171c0 0 0 0-0.090917 0.090917l-40.046902-40.046902c0.090917-0.632092-0.090917-1.443132 0.4517-2.075223l7.396049-3.427438c74.68206-67.557319 121.855146-164.877785 121.855146-273.473437 0-203.933255-165.329485-369.21656-369.261297-369.21656-203.887075 0-369.21656 165.283305-369.21656 369.21656s165.329485 369.261297 369.21656 369.261297c41.490033 0 81.220889-7.215658 118.381528-19.843059l22.593668 50.689997c-44.151168 15.694056-91.458465 24.533237-140.976639 24.533237-234.508884 0-424.596735-190.132588-424.596735-424.641472s190.087851-424.596735 424.596735-424.596735S849.952557 190.066204 849.952557 424.575088c0 107.288175-40.137819 205.015604-105.800307 279.787138L1009.59899 969.718048C1023.398214 983.427798 1028.720483 1000.475512 1021.504825 1007.69117z" /></svg>