<?xml version="1.0" standalone="no"?><!DOCTYPE svg PUBLIC "-//W3C//DTD SVG 1.1//EN" "http://www.w3.org/Graphics/SVG/1.1/DTD/svg11.dtd"><svg class="icon" width="200px" height="200.00px" viewBox="0 0 1024 1024" version="1.1" xmlns="http://www.w3.org/2000/svg"><path fill="#333333" d="M338.789565 407.109068c-27.341718 0-49.501414-22.00313-49.501414-49.169863 0-27.127847 22.159696-49.151443 49.501414-49.151443 27.340695 0 49.508577 22.023596 49.508577 49.151443C388.299165 385.105938 366.13026 407.109068 338.789565 407.109068L338.789565 407.109068zM704.187649 407.109068c-27.342742 0-49.481971-22.00313-49.481971-49.169863 0-27.127847 22.140253-49.151443 49.481971-49.151443 27.350928 0 49.507554 22.023596 49.507554 49.151443C753.695203 385.105938 731.538577 407.109068 704.187649 407.109068L704.187649 407.109068zM916.323117 1013.646188 107.766934 1013.646188c-32.407084 0-58.777685-26.194592-58.777685-58.370409l68.034513-703.490266c-0.095167-30.017664 26.269293-56.190767 58.681494-56.190767l145.782248 0C326.647013 92.616374 412.36528 10.352789 517.310448 10.352789c104.960517 0 190.679807 82.263585 195.838294 185.240935l135.243217 0c32.406061 0 58.768475 26.173103 58.768475 58.371432L975.009727 953.089997C975.108988 987.451596 948.731224 1013.646188 916.323117 1013.646188L916.323117 1013.646188zM517.310448 55.724139c-79.774905 0-145.276734 61.878303-150.343123 139.870608l300.69341 0C662.603555 117.602442 597.100702 55.724139 517.310448 55.724139L517.310448 55.724139zM861.604888 256.131495c-0.101307-9.337669-6.012947-15.182794-13.21293-15.182794L713.660394 240.948701 320.976874 240.948701 175.706279 240.948701c-7.229658 0-13.096273 5.845125-13.096273 13.017478l-68.057025 703.476963c0.118704 5.008061 5.984295 10.831696 13.214976 10.831696L916.323117 968.274838c7.233752 0 13.095249-5.823636 13.095249-12.999059L861.604888 256.131495 861.604888 256.131495z" /></svg>